<svg xmlns="http://www.w3.org/2000/svg" xmlns:xlink="http://www.w3.org/1999/xlink" width="1080" zoomAndPan="magnify" viewBox="0 0 810 809.999993" height="1080" preserveAspectRatio="xMidYMid meet" version="1.0"><defs><g/><clipPath id="id1"><path d="M 90.527344 239.078125 L 410 239.078125 L 410 557.367188 L 90.527344 557.367188 Z M 90.527344 239.078125 " clip-rule="nonzero"/></clipPath><clipPath id="id2"><path d="M 169 252 L 489.871094 252 L 489.871094 491 L 169 491 Z M 169 252 " clip-rule="nonzero"/></clipPath></defs><rect x="-81" width="972" fill="#00d460" y="-80.999999" height="971.999992" fill-opacity="1"/><g clip-path="url(#id1)"><path fill="#ffffff" d="M 369.207031 517.957031 L 130.34375 517.957031 L 130.34375 278.890625 L 342.660156 278.890625 L 382.476562 239.042969 C 382.476562 239.042969 196.703125 239.042969 130.34375 239.042969 C 90.527344 239.042969 90.527344 278.890625 90.527344 278.890625 C 90.527344 278.890625 90.527344 448.246094 90.527344 517.957031 C 90.527344 557.808594 130.34375 557.808594 130.34375 557.808594 C 130.34375 557.808594 288.757812 557.808594 369.207031 557.808594 C 409.023438 557.808594 409.023438 517.957031 409.023438 517.957031 L 409.023438 385.160156 L 369.207031 425.007812 L 369.207031 517.957031 " fill-opacity="1" fill-rule="nonzero"/></g><g clip-path="url(#id2)"><path fill="#ffffff" d="M 486.175781 277.261719 L 411.074219 252.785156 C 409.058594 252.785156 407.039062 253.566406 406.050781 254.699219 C 397.023438 263.128906 355.4375 302.875 332.398438 331.917969 C 315.375 352.960938 297.359375 385.089844 288.332031 399.964844 C 286.8125 401.488281 283.308594 402.269531 280.796875 402.269531 C 278.8125 402.269531 274.28125 398.441406 273.292969 396.917969 C 263.277344 384.664062 246.253906 364.046875 230.21875 348.355469 C 218.1875 336.132812 205.65625 326.960938 194.648438 317.394531 C 193.128906 316.261719 191.640625 315.875 189.128906 315.875 C 185.625 315.875 182.121094 318.175781 182.121094 321.222656 L 169.59375 369.75 C 169.59375 372.054688 170.582031 374.355469 172.601562 375.878906 C 182.617188 384.308594 211.179688 407.617188 223.671875 422.53125 C 247.242188 449.664062 263.773438 471.449219 271.308594 482.925781 C 271.769531 484.058594 278.8125 490.964844 280.300781 490.964844 C 282.28125 490.964844 286.316406 487.882812 287.308594 486.75 C 303.339844 467.269531 347.933594 403.792969 389.519531 362.878906 C 430.574219 322.355469 470.144531 295.613281 488.691406 281.089844 C 488.691406 280.699219 489.1875 280.308594 489.1875 279.53125 C 489.1875 278.394531 487.699219 277.261719 486.175781 277.261719 " fill-opacity="1" fill-rule="nonzero"/></g><g fill="#ffffff" fill-opacity="1"><g transform="translate(481.367019, 457.503513)"><g><path d="M 66.5625 -165.53125 C 73.375 -174.457031 82.648438 -181.972656 94.390625 -188.078125 C 106.128906 -194.179688 119.394531 -197.234375 134.1875 -197.234375 C 151.09375 -197.234375 166.53125 -193.066406 180.5 -184.734375 C 194.46875 -176.398438 205.441406 -164.71875 213.421875 -149.6875 C 221.410156 -134.65625 225.40625 -117.394531 225.40625 -97.90625 C 225.40625 -78.414062 221.410156 -60.984375 213.421875 -45.609375 C 205.441406 -30.234375 194.46875 -18.257812 180.5 -9.6875 C 166.53125 -1.113281 151.09375 3.171875 134.1875 3.171875 C 119.394531 3.171875 106.242188 0.175781 94.734375 -5.8125 C 83.234375 -11.800781 73.84375 -19.253906 66.5625 -28.171875 L 66.5625 92.28125 L 26.421875 92.28125 L 26.421875 -194.0625 L 66.5625 -194.0625 Z M 184.546875 -97.90625 C 184.546875 -111.289062 181.785156 -122.851562 176.265625 -132.59375 C 170.753906 -142.34375 163.476562 -149.738281 154.4375 -154.78125 C 145.394531 -159.832031 135.710938 -162.359375 125.390625 -162.359375 C 115.285156 -162.359375 105.710938 -159.773438 96.671875 -154.609375 C 87.640625 -149.453125 80.363281 -141.941406 74.84375 -132.078125 C 69.320312 -122.210938 66.5625 -110.585938 66.5625 -97.203125 C 66.5625 -83.816406 69.320312 -72.132812 74.84375 -62.15625 C 80.363281 -52.175781 87.640625 -44.601562 96.671875 -39.4375 C 105.710938 -34.28125 115.285156 -31.703125 125.390625 -31.703125 C 135.710938 -31.703125 145.394531 -34.34375 154.4375 -39.625 C 163.476562 -44.90625 170.753906 -52.59375 176.265625 -62.6875 C 181.785156 -72.789062 184.546875 -84.53125 184.546875 -97.90625 Z M 184.546875 -97.90625 "/></g></g></g></svg>