<svg xmlns="http://www.w3.org/2000/svg" xmlns:xlink="http://www.w3.org/1999/xlink" width="1080" zoomAndPan="magnify" viewBox="0 0 810 809.999993" height="1080" preserveAspectRatio="xMidYMid meet" version="1.0"><path fill="#000000" d="M 681.40625 357.257812 L 244.105469 357.257812 C 244.105469 357.257812 336.230469 265.8125 338.664062 262.683594 C 344.984375 254.582031 348.78125 244.421875 348.78125 233.363281 C 348.78125 221.140625 344.164062 210.035156 336.617188 201.5625 L 332.746094 197.691406 C 324.289062 190.148438 313.164062 185.515625 300.941406 185.515625 C 288.378906 185.515625 276.960938 190.425781 268.425781 198.355469 C 268.425781 198.355469 91.984375 374.5 91.085938 375.660156 C 84.84375 383.746094 81.09375 393.828125 81.09375 404.84375 C 81.09375 415.824219 84.84375 425.921875 91.070312 433.992188 C 93.59375 437.261719 270.628906 613.511719 270.628906 613.511719 C 278.835938 620.171875 289.292969 624.167969 300.695312 624.167969 C 327.109375 624.167969 348.53125 602.761719 348.53125 576.351562 C 348.53125 564.765625 344.410156 554.140625 337.5625 545.871094 L 244.105469 452.425781 L 681.40625 452.425781 C 707.695312 452.425781 728.992188 431.113281 728.992188 404.84375 C 728.992188 378.558594 707.695312 357.257812 681.40625 357.257812 " fill-opacity="1" fill-rule="nonzero"/></svg>