<svg xmlns="http://www.w3.org/2000/svg" xmlns:xlink="http://www.w3.org/1999/xlink" width="1080" zoomAndPan="magnify" viewBox="0 0 810 809.999993" height="1080" preserveAspectRatio="xMidYMid meet" version="1.0"><defs><clipPath id="id1"><path d="M 81 91.199219 L 718.5 91.199219 L 718.5 728.699219 L 81 728.699219 Z M 81 91.199219 " clip-rule="nonzero"/></clipPath></defs><g clip-path="url(#id1)"><path fill="#00d460" d="M 399.75 91.199219 C 223.671875 91.199219 81 233.9375 81 409.949219 C 81 586.027344 223.671875 728.699219 399.75 728.699219 C 575.765625 728.699219 718.5 586.027344 718.5 409.949219 C 718.5 233.9375 575.765625 91.199219 399.75 91.199219 Z M 552.910156 509.050781 L 498.976562 563.367188 L 399.945312 465.035156 L 302.5625 563.109375 L 246.335938 507.011719 L 306.738281 450.304688 L 345.644531 411.117188 L 246.589844 312.765625 L 302.691406 256.535156 L 359.394531 316.941406 L 399.558594 356.808594 L 498.851562 256.792969 L 553.164062 310.722656 L 453.867188 410.726562 Z M 552.910156 509.050781 " fill-opacity="1" fill-rule="nonzero"/></g></svg>