<svg xmlns="http://www.w3.org/2000/svg" xmlns:xlink="http://www.w3.org/1999/xlink" width="1080" zoomAndPan="magnify" viewBox="0 0 810 809.999993" height="1080" preserveAspectRatio="xMidYMid meet" version="1.0"><defs><clipPath id="id1"><path d="M 89.378906 90 L 525 90 L 525 720 L 89.378906 720 Z M 89.378906 90 " clip-rule="nonzero"/></clipPath></defs><g clip-path="url(#id1)"><path fill="#000000" d="M 500.699219 477.714844 C 487.46875 477.714844 476.503906 488.679688 476.503906 501.910156 L 476.503906 647.082031 C 476.503906 660.316406 465.542969 671.277344 452.308594 671.277344 L 161.964844 671.277344 C 148.640625 671.277344 137.769531 660.410156 137.769531 647.082031 L 137.769531 163.175781 C 137.769531 149.945312 148.640625 138.980469 161.964844 138.980469 L 452.308594 138.980469 C 465.542969 138.980469 476.503906 149.945312 476.503906 163.175781 L 476.503906 308.347656 C 476.503906 321.578125 487.46875 332.542969 500.699219 332.542969 C 513.933594 332.542969 524.898438 321.578125 524.898438 308.347656 L 524.898438 163.175781 C 524.800781 123.386719 492.101562 90.683594 452.308594 90.589844 L 161.964844 90.589844 C 142.683594 90.496094 124.253906 98.246094 110.644531 111.855469 C 97.035156 125.464844 89.378906 143.988281 89.378906 163.175781 L 89.378906 647.082031 C 89.378906 666.269531 97.035156 684.792969 110.644531 698.402344 C 124.253906 712.015625 142.683594 719.667969 161.964844 719.667969 L 452.308594 719.667969 C 492.101562 719.667969 524.800781 686.875 524.898438 647.082031 L 524.898438 501.910156 C 524.898438 488.679688 513.933594 477.714844 500.699219 477.714844 " fill-opacity="1" fill-rule="nonzero"/></g><path fill="#000000" d="M 716.570312 414.390625 C 720.351562 405.316406 718.269531 394.921875 711.371094 388.023438 L 614.589844 291.242188 C 610.054688 286.894531 604.003906 284.4375 597.765625 284.4375 C 584.535156 284.4375 573.570312 295.398438 573.570312 308.632812 C 573.570312 314.867188 576.027344 320.917969 580.375 325.453125 L 635.855469 380.933594 L 258.746094 380.933594 C 245.421875 380.933594 234.550781 391.898438 234.550781 405.128906 C 234.550781 418.359375 245.421875 429.324219 258.746094 429.324219 L 635.855469 429.324219 L 580.375 484.804688 C 575.648438 489.339844 573.003906 495.671875 573.003906 502.195312 C 573.003906 515.519531 583.871094 526.390625 597.199219 526.390625 C 603.71875 526.390625 610.054688 523.742188 614.589844 519.019531 L 711.371094 422.234375 C 713.546875 419.96875 715.339844 417.320312 716.570312 414.390625 " fill-opacity="1" fill-rule="nonzero"/></svg>