<svg xmlns="http://www.w3.org/2000/svg" xmlns:xlink="http://www.w3.org/1999/xlink" width="1080" zoomAndPan="magnify" viewBox="0 0 810 809.999993" height="1080" preserveAspectRatio="xMidYMid meet" version="1.0"><defs><clipPath id="id1"><path d="M 81 167.742188 L 200 167.742188 L 200 286 L 81 286 Z M 81 167.742188 " clip-rule="nonzero"/></clipPath><clipPath id="id2"><path d="M 81 524 L 200 524 L 200 642.15625 L 81 642.15625 Z M 81 524 " clip-rule="nonzero"/></clipPath><clipPath id="id3"><path d="M 212.375 182.8125 L 729.566406 182.8125 L 729.566406 268.363281 L 212.375 268.363281 Z M 212.375 182.8125 " clip-rule="nonzero"/></clipPath><clipPath id="id4"><path d="M 212.375 362.339844 L 729.566406 362.339844 L 729.566406 447.890625 L 212.375 447.890625 Z M 212.375 362.339844 " clip-rule="nonzero"/></clipPath><clipPath id="id5"><path d="M 212.375 539.113281 L 729.566406 539.113281 L 729.566406 624.664062 L 212.375 624.664062 Z M 212.375 539.113281 " clip-rule="nonzero"/></clipPath><clipPath id="id6"><path d="M 99.304688 182.8125 L 194.578125 182.8125 L 194.578125 278.085938 L 99.304688 278.085938 Z M 99.304688 182.8125 " clip-rule="nonzero"/></clipPath><clipPath id="id7"><path d="M 99.304688 357.617188 L 194.578125 357.617188 L 194.578125 452.890625 L 99.304688 452.890625 Z M 99.304688 357.617188 " clip-rule="nonzero"/></clipPath><clipPath id="id8"><path d="M 99.304688 532.097656 L 194.578125 532.097656 L 194.578125 627.371094 L 99.304688 627.371094 Z M 99.304688 532.097656 " clip-rule="nonzero"/></clipPath></defs><g clip-path="url(#id1)"><path fill="#000000" d="M 140.527344 285.242188 C 108.144531 285.242188 81.800781 258.886719 81.800781 226.484375 C 81.800781 194.09375 108.144531 167.742188 140.527344 167.742188 C 172.910156 167.742188 199.257812 194.09375 199.257812 226.484375 C 199.269531 258.886719 172.921875 285.242188 140.527344 285.242188 Z M 140.527344 187.339844 C 118.949219 187.339844 101.394531 204.898438 101.394531 226.484375 C 101.394531 248.070312 118.949219 265.628906 140.527344 265.628906 C 162.109375 265.628906 179.664062 248.070312 179.664062 226.484375 C 179.675781 204.898438 162.121094 187.339844 140.527344 187.339844 Z M 140.527344 187.339844 " fill-opacity="1" fill-rule="nonzero"/></g><path fill="#000000" d="M 140.527344 463.679688 C 108.144531 463.679688 81.800781 437.328125 81.800781 404.9375 C 81.800781 372.546875 108.144531 346.191406 140.527344 346.191406 C 172.910156 346.191406 199.257812 372.546875 199.257812 404.9375 C 199.257812 437.328125 172.921875 463.679688 140.527344 463.679688 Z M 140.527344 365.792969 C 118.949219 365.792969 101.394531 383.351562 101.394531 404.9375 C 101.394531 426.519531 118.949219 444.082031 140.527344 444.082031 C 162.109375 444.082031 179.664062 426.519531 179.664062 404.9375 C 179.664062 383.351562 162.121094 365.792969 140.527344 365.792969 Z M 140.527344 365.792969 " fill-opacity="1" fill-rule="nonzero"/><g clip-path="url(#id2)"><path fill="#000000" d="M 140.527344 642.132812 C 108.144531 642.132812 81.800781 615.777344 81.800781 583.386719 C 81.800781 551 108.144531 524.644531 140.527344 524.644531 C 172.910156 524.644531 199.257812 551 199.257812 583.386719 C 199.257812 615.777344 172.921875 642.132812 140.527344 642.132812 Z M 140.527344 544.230469 C 118.949219 544.230469 101.394531 561.789062 101.394531 583.375 C 101.394531 604.960938 118.949219 622.519531 140.527344 622.519531 C 162.109375 622.519531 179.664062 604.960938 179.664062 583.375 C 179.664062 561.789062 162.121094 544.230469 140.527344 544.230469 Z M 140.527344 544.230469 " fill-opacity="1" fill-rule="nonzero"/></g><g clip-path="url(#id3)"><path fill="#000000" d="M 250.6875 182.8125 L 691.253906 182.8125 C 712.398438 182.8125 729.542969 199.984375 729.542969 221.167969 L 729.542969 230.007812 C 729.542969 251.191406 712.398438 268.363281 691.253906 268.363281 L 250.6875 268.363281 C 229.539062 268.363281 212.398438 251.191406 212.398438 230.007812 L 212.398438 221.167969 C 212.398438 199.984375 229.539062 182.8125 250.6875 182.8125 " fill-opacity="1" fill-rule="nonzero"/></g><g clip-path="url(#id4)"><path fill="#000000" d="M 250.6875 362.339844 L 691.253906 362.339844 C 712.398438 362.339844 729.542969 379.511719 729.542969 400.695312 L 729.542969 409.539062 C 729.542969 430.71875 712.398438 447.890625 691.253906 447.890625 L 250.6875 447.890625 C 229.539062 447.890625 212.398438 430.71875 212.398438 409.539062 L 212.398438 400.695312 C 212.398438 379.511719 229.539062 362.339844 250.6875 362.339844 " fill-opacity="1" fill-rule="nonzero"/></g><g clip-path="url(#id5)"><path fill="#000000" d="M 250.6875 539.113281 L 691.253906 539.113281 C 712.398438 539.113281 729.542969 556.285156 729.542969 577.46875 L 729.542969 586.3125 C 729.542969 607.492188 712.398438 624.664062 691.253906 624.664062 L 250.6875 624.664062 C 229.539062 624.664062 212.398438 607.492188 212.398438 586.3125 L 212.398438 577.46875 C 212.398438 556.285156 229.539062 539.113281 250.6875 539.113281 " fill-opacity="1" fill-rule="nonzero"/></g><g clip-path="url(#id6)"><path fill="#000000" d="M 146.941406 182.8125 C 120.632812 182.8125 99.304688 204.140625 99.304688 230.449219 C 99.304688 256.757812 120.632812 278.085938 146.941406 278.085938 C 173.25 278.085938 194.578125 256.757812 194.578125 230.449219 C 194.578125 204.140625 173.25 182.8125 146.941406 182.8125 " fill-opacity="1" fill-rule="nonzero"/></g><g clip-path="url(#id7)"><path fill="#000000" d="M 146.941406 357.617188 C 120.632812 357.617188 99.304688 378.945312 99.304688 405.253906 C 99.304688 431.5625 120.632812 452.890625 146.941406 452.890625 C 173.25 452.890625 194.578125 431.5625 194.578125 405.253906 C 194.578125 378.945312 173.25 357.617188 146.941406 357.617188 " fill-opacity="1" fill-rule="nonzero"/></g><g clip-path="url(#id8)"><path fill="#000000" d="M 146.941406 532.097656 C 120.632812 532.097656 99.304688 553.425781 99.304688 579.734375 C 99.304688 606.042969 120.632812 627.371094 146.941406 627.371094 C 173.25 627.371094 194.578125 606.042969 194.578125 579.734375 C 194.578125 553.425781 173.25 532.097656 146.941406 532.097656 " fill-opacity="1" fill-rule="nonzero"/></g></svg>